<svg width="1920" height="1080" viewBox="0 0 1920 1080" fill="none" xmlns="http://www.w3.org/2000/svg">
<path d="M289 616.352V609.219C292.387 608.79 294.729 607.821 296.062 606.281C297.395 604.739 298.08 602.158 298.08 598.503V480.073C298.08 476.344 297.395 473.693 296.062 472.079C294.729 470.467 292.387 469.463 289 469.032V462.008H332.274C347.335 462.008 359.081 465.125 367.549 471.398C375.98 477.672 380.232 486.345 380.232 497.385C380.232 507.243 376.917 515.487 370.324 522.117C363.694 528.749 354.29 533.266 342.039 535.703C355.84 537.961 366.36 542.442 373.639 549.145C380.916 555.847 384.557 564.45 384.557 574.881C384.557 588.323 380.232 598.61 371.585 605.706C362.938 612.804 350.398 616.352 334.004 616.352H289ZM325.103 532.442H327.734C335.986 532.442 341.93 529.968 345.569 525.022C349.245 520.074 351.047 511.939 351.047 500.611C351.047 488.353 349.642 480.036 346.867 475.629C344.092 471.219 339.157 468.997 332.022 468.997C329.212 468.997 327.337 469.5 326.437 470.502C325.536 471.506 325.068 473.586 325.068 476.74V532.442H325.103ZM325.103 539.181V597.893C325.103 602.158 325.752 605.133 327.013 606.782C328.274 608.432 330.473 609.256 333.571 609.256C340.597 609.256 345.822 606.71 349.245 601.585C352.669 596.46 354.362 588.574 354.362 577.856C354.362 564.128 352.092 554.27 347.516 548.285C342.903 542.263 335.444 539.251 325.103 539.181Z" fill="#AC2121"/>
<path d="M448.621 532.048C448.621 528.211 448.079 525.523 447.035 524.018C445.99 522.513 444.045 521.472 441.235 520.936V514.197C447.935 514.197 453.7 514.125 458.529 513.945C463.394 513.766 467.861 513.516 471.932 513.158V598.717C471.932 602.696 472.509 605.457 473.663 606.927C474.814 608.396 476.978 609.328 480.148 609.757V616.783C471.645 617.142 465.232 617.428 460.979 617.68C456.727 617.929 452.8 618.181 449.196 618.467L448.765 603.234C444.62 608.753 440.514 612.769 436.514 615.241C432.513 617.715 428.154 618.97 423.433 618.97C415.687 618.97 410.21 616.424 406.967 611.371C403.724 606.281 402.103 597.499 402.103 584.954V532.048C402.103 528.069 401.6 525.344 400.59 523.911C399.581 522.476 397.671 521.472 394.933 520.936V514.197C401.635 514.197 407.4 514.125 412.229 513.945C417.092 513.766 421.561 513.516 425.632 513.158V587.391C425.632 593.413 426.353 597.714 427.793 600.259C429.235 602.804 431.613 604.094 434.928 604.094C439.216 604.094 442.568 602.051 444.945 597.965C447.323 593.879 448.549 588.108 448.549 580.687V532.048H448.621Z" fill="#AC2121"/>
<path d="M491.462 575.527H498.957C500.937 586.709 504.361 595.564 509.261 601.979C514.162 608.432 519.783 611.658 526.197 611.658C529.871 611.658 532.862 610.475 535.205 608.146C537.545 605.816 538.734 602.804 538.734 599.184C538.734 596.244 537.799 593.341 535.889 590.474C533.979 587.606 531.241 584.99 527.637 582.588C526.665 581.943 525.26 581.046 523.422 579.865C508.505 570.078 499.353 562.407 495.966 556.851C494.416 554.415 493.262 551.726 492.543 548.859C491.785 545.991 491.427 542.981 491.427 539.825C491.427 531.832 493.839 525.165 498.669 519.753C503.496 514.377 509.405 511.651 516.468 511.651C519.639 511.651 523.242 512.476 527.349 514.125C531.42 515.774 533.944 516.599 534.844 516.599C536.033 516.599 537.15 516.168 538.159 515.344C539.167 514.519 540.032 513.338 540.753 511.868H547.419V549.683H540.249C537.51 539.61 534.088 531.904 530.015 526.635C525.944 521.365 521.368 518.714 516.287 518.714C513.26 518.714 510.666 519.788 508.54 521.976C506.379 524.161 505.334 526.814 505.334 529.968C505.334 535.632 511.387 542.227 523.494 549.718L523.927 549.935C535.133 556.924 542.843 563.267 547.095 568.932C551.346 574.595 553.472 581.046 553.472 588.251C553.472 596.71 550.699 603.952 545.148 609.974C539.6 615.996 532.862 619.006 524.971 619.006C521.044 619.006 516.936 618.074 512.685 616.173C508.433 614.275 505.911 613.343 505.155 613.343C504.324 613.343 503.389 613.701 502.342 614.382C501.335 615.099 499.713 616.604 497.552 619.006H491.534V575.527H491.462Z" fill="#AC2121"/>
<path d="M594.694 598.718C594.694 602.482 595.306 605.17 596.495 606.747C597.684 608.324 599.845 609.399 602.944 609.937V616.352H563.13V609.937C566.301 609.363 568.462 608.324 569.616 606.747C570.767 605.17 571.344 602.482 571.344 598.718V532.442C571.344 528.391 570.732 525.595 569.543 524.09C568.355 522.583 566.228 521.652 563.202 521.293V514.162C567.057 514.017 571.309 513.838 575.885 513.587C580.461 513.337 586.731 512.978 594.657 512.475V598.718H594.694ZM594.08 474.373C594.08 477.886 592.747 480.933 590.118 483.549C587.487 486.166 584.388 487.493 580.894 487.493C577.362 487.493 574.299 486.203 571.67 483.622C569.039 481.04 567.706 477.958 567.706 474.373C567.706 470.86 569.039 467.813 571.67 465.197C574.299 462.581 577.398 461.255 580.894 461.255C584.496 461.255 587.594 462.581 590.19 465.197C592.784 467.813 594.08 470.897 594.08 474.373Z" fill="#AC2121"/>
<path d="M645.065 598.718C645.065 602.482 645.677 605.17 646.866 606.747C648.056 608.325 650.218 609.399 653.316 609.937V616.353H613.5V609.937C616.599 609.364 618.725 608.325 619.842 606.783C620.959 605.241 621.536 602.552 621.536 598.683V532.442C621.536 528.319 620.959 525.523 619.807 524.054C618.653 522.584 616.599 521.689 613.644 521.33V514.197C621.896 513.838 628.131 513.552 632.418 513.3C636.706 513.051 640.67 512.799 644.236 512.513L644.669 527.746C648.812 522.369 652.919 518.427 656.92 515.989C660.919 513.552 665.279 512.296 669.999 512.296C677.746 512.296 683.222 514.805 686.465 519.86C689.708 524.915 691.33 533.696 691.33 546.205V598.718C691.33 602.552 691.87 605.241 692.914 606.747C693.961 608.253 695.834 609.329 698.5 609.937V616.353H667.765V543.696C667.765 537.532 667.08 533.23 665.711 530.793C664.341 528.356 662.001 527.101 658.686 527.101C654.398 527.101 651.046 529.108 648.668 533.122C646.291 537.136 645.065 542.872 645.065 550.291V598.718Z" fill="#AC2121"/>
<path d="M772.583 581.729H779.536C778.708 593.414 775.284 602.553 769.34 609.15C763.394 615.745 755.612 619.006 745.955 619.006C734.749 619.006 725.597 614.168 718.462 604.526C711.329 594.847 707.76 582.337 707.76 566.924C707.76 550.471 711.257 537.137 718.21 526.959C725.164 516.779 734.137 511.688 745.127 511.688C755.9 511.688 764.331 516.527 770.42 526.241C776.51 535.955 779.536 549.504 779.536 566.924V567.749H733.92V571.621C733.92 583.592 735.398 592.624 738.352 598.753C741.307 604.884 745.739 607.929 751.648 607.929C757.124 607.929 761.7 605.672 765.376 601.12C769.051 596.603 771.466 590.115 772.583 581.729ZM733.739 559.146H755.395V552.514C755.395 539.897 754.602 531.08 753.09 526.062C751.54 521.007 748.909 518.498 745.162 518.498C741.379 518.498 738.496 521.689 736.623 528.07C734.714 534.448 733.776 544.092 733.776 557.068V559.146H733.739Z" fill="#AC2121"/>
<path d="M790.633 575.527H798.128C800.11 586.709 803.532 595.564 808.432 601.979C813.333 608.432 818.954 611.658 825.368 611.658C829.043 611.658 832.033 610.475 834.376 608.146C836.718 605.816 837.907 602.804 837.907 599.184C837.907 596.244 836.97 593.341 835.06 590.474C833.15 587.606 830.412 584.99 826.808 582.588C825.836 581.943 824.43 581.046 822.593 579.865C807.676 570.078 798.524 562.407 795.136 556.851C793.587 554.415 792.435 551.726 791.714 548.859C790.958 545.991 790.597 542.981 790.597 539.825C790.597 531.832 793.01 525.165 797.84 519.753C802.667 514.377 808.576 511.651 815.639 511.651C818.81 511.651 822.413 512.476 826.52 514.125C830.593 515.774 833.115 516.599 834.015 516.599C835.204 516.599 836.321 516.168 837.33 515.344C838.34 514.519 839.203 513.338 839.924 511.868H846.59V549.683H839.419C836.681 539.61 833.259 531.904 829.188 526.635C825.115 521.365 820.539 518.714 815.46 518.714C812.433 518.714 809.837 519.788 807.713 521.976C805.549 524.161 804.505 526.814 804.505 529.968C804.505 535.632 810.558 542.227 822.665 549.718L823.097 549.935C834.304 556.924 842.013 563.267 846.266 568.932C850.518 574.595 852.643 581.046 852.643 588.251C852.643 596.71 849.869 603.952 844.321 609.974C838.77 615.996 832.033 619.006 824.142 619.006C820.215 619.006 816.107 618.074 811.856 616.173C807.604 614.275 805.082 613.343 804.325 613.343C803.497 613.343 802.56 613.701 801.515 614.382C800.506 615.099 798.884 616.604 796.723 619.006H790.705V575.527H790.633Z" fill="#AC2121"/>
<path d="M863.67 575.527H871.163C873.145 586.709 876.57 595.564 881.469 601.979C886.369 608.432 891.991 611.658 898.403 611.658C902.079 611.658 905.07 610.475 907.411 608.146C909.754 605.816 910.943 602.804 910.943 599.184C910.943 596.244 910.007 593.341 908.097 590.474C906.187 587.606 903.449 584.99 899.845 582.588C898.873 581.943 897.468 581.046 895.63 579.865C880.713 570.078 871.561 562.407 868.174 556.851C866.624 554.415 865.471 551.726 864.75 548.859C863.993 545.991 863.633 542.981 863.633 539.825C863.633 531.832 866.047 525.165 870.875 519.753C875.704 514.377 881.613 511.651 888.676 511.651C891.847 511.651 895.449 512.476 899.557 514.125C903.628 515.774 906.15 516.599 907.052 516.599C908.241 516.599 909.358 516.168 910.366 515.344C911.375 514.519 912.24 513.338 912.961 511.868H919.627V549.683H912.457C909.719 539.61 906.294 531.904 902.223 526.635C898.152 521.365 893.576 518.714 888.495 518.714C885.468 518.714 882.874 519.788 880.748 521.976C878.587 524.161 877.542 526.814 877.542 529.968C877.542 535.632 883.595 542.227 895.702 549.718L896.135 549.935C907.339 556.924 915.051 563.267 919.303 568.932C923.554 574.595 925.68 581.046 925.68 588.251C925.68 596.71 922.905 603.952 917.356 609.974C911.808 615.996 905.07 619.006 897.179 619.006C893.252 619.006 889.144 618.074 884.892 616.173C880.641 614.275 878.119 613.343 877.361 613.343C876.533 613.343 875.595 613.701 874.551 614.382C873.543 615.099 871.921 616.604 869.758 619.006H863.742V575.527H863.67Z" fill="#AC2121"/>
<path d="M980.954 619.006V566.064H990.033C993.637 580.4 998.392 591.477 1004.37 599.183C1010.35 606.927 1017.13 610.796 1024.62 610.796C1029.56 610.796 1033.56 609.184 1036.62 605.958C1039.69 602.731 1041.2 598.538 1041.2 593.341C1041.2 588.358 1039.68 583.34 1036.66 578.215C1033.63 573.088 1026.46 564.809 1015.11 553.338C1013.42 551.726 1011.04 549.431 1007.94 546.421C998.501 537.173 992.376 530.471 989.564 526.276C986.537 521.652 984.269 516.992 982.754 512.261C981.242 507.53 980.484 502.761 980.484 497.923C980.484 487.207 983.62 478.21 989.924 470.933C996.231 463.655 1003.87 460 1012.88 460C1016.62 460 1020.88 461.076 1025.63 463.261C1030.42 465.449 1033.45 466.523 1034.71 466.523C1036.33 466.523 1037.85 466.022 1039.25 465.055C1040.66 464.086 1041.88 462.616 1042.96 460.645H1050.03V510.935H1041.38C1038.21 496.669 1034.17 485.879 1029.24 478.639C1024.3 471.398 1018.57 467.778 1012.01 467.778C1007.58 467.778 1003.94 469.176 1001.13 471.972C998.32 474.767 996.915 478.387 996.915 482.797C996.915 490.79 1005.35 502.941 1022.25 519.359L1024.37 521.365C1024.88 521.868 1025.7 522.62 1026.89 523.66C1034.78 531.007 1041.27 538.033 1046.42 544.772C1050.21 549.969 1053.09 555.453 1054.96 561.261C1056.87 567.066 1057.81 573.125 1057.81 579.433C1057.81 590.832 1054.67 600.259 1048.37 607.679C1042.06 615.099 1034.14 618.826 1024.55 618.826C1019.69 618.826 1014.43 617.608 1008.73 615.134C1003.04 612.662 999.581 611.442 998.392 611.442C996.771 611.442 995.294 611.908 993.961 612.876C992.627 613.843 990.718 615.851 988.268 619.006H980.954Z" fill="#AC2121"/>
<path d="M1076.08 594.847V522.801H1065.3V514.198C1072.76 510.291 1078.6 504.519 1082.82 496.92C1087.03 489.321 1089.73 479.679 1090.96 467.994H1099.39V514.198H1118.16V522.801H1099.39V595.242C1099.39 599.292 1099.79 602.124 1100.61 603.701C1101.44 605.278 1102.81 606.066 1104.79 606.066C1107.53 606.066 1109.66 604.13 1111.17 600.296C1112.69 596.461 1113.44 591.119 1113.44 584.345H1120.4V586.029C1120.4 596.82 1118.38 604.992 1114.34 610.618C1110.31 616.211 1104.36 619.006 1096.54 619.006C1089.52 619.006 1084.33 617.071 1081.01 613.164C1077.7 609.257 1076.08 603.163 1076.08 594.847Z" fill="#AC2121"/>
<path d="M1168.43 604.705C1165.4 609.399 1161.94 612.949 1158.09 615.351C1154.23 617.75 1150.01 618.971 1145.51 618.971C1139.24 618.971 1134.12 616.748 1130.09 612.304C1126.05 607.859 1124.07 602.159 1124.07 595.242C1124.07 585.994 1127.82 577.533 1135.31 569.864C1142.81 562.193 1153.37 556.064 1167.02 551.44V536.959C1167.02 530.721 1166.12 526.313 1164.32 523.66C1162.52 521.007 1159.49 519.716 1155.2 519.716C1153.29 519.716 1151.46 520.075 1149.65 520.757C1147.85 521.473 1146.23 522.404 1144.75 523.588C1147.56 524.557 1149.76 526.062 1151.31 528.105C1152.86 530.148 1153.62 532.514 1153.62 535.238C1153.62 538.606 1152.46 541.332 1150.19 543.447C1147.92 545.56 1144.9 546.601 1141.19 546.601C1137.11 546.601 1133.8 545.418 1131.31 543.016C1128.83 540.649 1127.57 537.567 1127.57 533.768C1127.57 527.746 1130.74 522.584 1137.08 518.283C1143.42 513.983 1151.27 511.831 1160.61 511.831C1170.88 511.831 1178.44 514.053 1183.23 518.498C1188.06 522.942 1190.48 529.968 1190.48 539.538V594.774C1190.48 598.683 1190.73 601.227 1191.23 602.338C1191.74 603.449 1192.6 604.022 1193.86 604.022C1195.49 604.022 1196.67 603.055 1197.47 601.12C1198.22 599.184 1198.62 596.244 1198.62 592.23H1204.1V595.17C1204.1 602.876 1202.58 608.754 1199.59 612.805C1196.6 616.856 1192.31 618.899 1186.77 618.899C1182.69 618.899 1179.16 617.75 1176.17 615.421C1173.18 613.091 1170.62 609.615 1168.43 604.705ZM1167.06 559.756C1161 561.512 1156.28 565.096 1152.9 570.509C1149.51 575.921 1147.81 582.732 1147.81 590.94C1147.81 595.708 1148.46 599.256 1149.76 601.658C1151.06 604.022 1153 605.241 1155.63 605.241C1158.8 605.241 1161.51 603.414 1163.71 599.722C1165.9 596.03 1167.02 591.405 1167.02 585.814V559.756H1167.06Z" fill="#AC2121"/>
<path d="M1241.5 598.718C1241.5 602.482 1242.11 605.17 1243.3 606.747C1244.49 608.325 1246.65 609.399 1249.75 609.937V616.353H1209.97V609.937C1213.07 609.364 1215.19 608.325 1216.31 606.783C1217.43 605.241 1218 602.552 1218 598.683V532.442C1218 528.319 1217.43 525.523 1216.28 524.054C1215.12 522.584 1213.07 521.689 1210.12 521.33V514.197C1218.37 513.838 1224.6 513.552 1228.89 513.3C1233.17 513.051 1237.14 512.799 1240.71 512.513L1241.14 527.746C1245.28 522.369 1249.39 518.427 1253.39 515.989C1257.39 513.552 1261.75 512.296 1266.47 512.296C1274.21 512.296 1279.69 514.805 1282.93 519.86C1286.18 524.915 1287.8 533.696 1287.8 546.205V598.718C1287.8 602.552 1288.34 605.241 1289.39 606.747C1290.43 608.253 1292.3 609.329 1294.97 609.937V616.353H1264.23V543.696C1264.23 537.532 1263.55 533.23 1262.18 530.793C1260.81 528.356 1258.47 527.101 1255.15 527.101C1250.87 527.101 1247.52 529.108 1245.14 533.122C1242.76 537.136 1241.53 542.872 1241.53 550.291V598.718H1241.5Z" fill="#AC2121"/>
<path d="M1357.59 479.535C1357.59 475.771 1356.87 473.083 1355.47 471.543C1354.06 470.001 1351.4 468.962 1347.43 468.388V462.008C1353.41 461.721 1359.21 461.433 1364.8 461.111C1370.38 460.789 1375.82 460.431 1381.12 460V599.148C1381.12 603.197 1381.66 605.886 1382.71 607.141C1383.75 608.395 1385.84 609.184 1388.94 609.436V616.352C1388.43 616.352 1387.72 616.389 1386.71 616.461C1374.74 617.035 1365.3 617.608 1358.42 618.253L1357.99 607.106C1354.6 611.013 1351.21 613.988 1347.75 615.996C1344.3 618.002 1340.95 618.97 1337.63 618.97C1327.97 618.97 1320.37 614.274 1314.82 604.884C1309.27 595.491 1306.5 582.48 1306.5 565.813C1306.5 549.646 1309.49 536.563 1315.47 526.599C1321.45 516.634 1329.09 511.651 1338.39 511.651C1342.06 511.651 1345.45 512.548 1348.62 514.376C1351.79 516.205 1354.78 519 1357.59 522.763V479.535ZM1357.59 544.951C1357.59 538.284 1356.44 533.087 1354.1 529.288C1351.76 525.488 1348.62 523.624 1344.58 523.624C1339.86 523.624 1336.59 526.313 1334.78 531.724C1332.95 537.101 1332.05 548.106 1332.05 564.701C1332.05 581.978 1333.02 593.413 1334.96 599.004C1336.91 604.595 1340.33 607.356 1345.27 607.356C1349.02 607.356 1352.01 605.564 1354.24 602.016C1356.47 598.466 1357.63 593.592 1357.63 587.426V544.951H1357.59Z" fill="#AC2121"/>
<path d="M1439.74 604.705C1436.72 609.399 1433.26 612.949 1429.4 615.351C1425.55 617.75 1421.33 618.971 1416.83 618.971C1410.56 618.971 1405.44 616.748 1401.41 612.304C1397.37 607.859 1395.39 602.159 1395.39 595.242C1395.39 585.994 1399.14 577.533 1406.63 569.864C1414.13 562.193 1424.68 556.064 1438.34 551.44V536.959C1438.34 530.721 1437.44 526.313 1435.64 523.66C1433.84 521.007 1430.81 519.716 1426.52 519.716C1424.61 519.716 1422.77 520.075 1420.97 520.757C1419.17 521.473 1417.55 522.404 1416.07 523.588C1418.88 524.557 1421.08 526.062 1422.63 528.105C1424.18 530.148 1424.94 532.514 1424.94 535.238C1424.94 538.606 1423.78 541.332 1421.51 543.447C1419.24 545.56 1416.22 546.601 1412.5 546.601C1408.43 546.601 1405.12 545.418 1402.63 543.016C1400.15 540.649 1398.88 537.567 1398.88 533.768C1398.88 527.746 1402.06 522.584 1408.4 518.283C1414.74 513.983 1422.59 511.831 1431.93 511.831C1442.19 511.831 1449.76 514.053 1454.55 518.498C1459.38 522.942 1461.79 529.968 1461.79 539.538V594.774C1461.79 598.683 1462.05 601.227 1462.55 602.338C1463.06 603.449 1463.92 604.022 1465.18 604.022C1466.8 604.022 1467.99 603.055 1468.79 601.12C1469.54 599.184 1469.94 596.244 1469.94 592.23H1475.42V595.17C1475.42 602.876 1473.9 608.754 1470.91 612.805C1467.92 616.856 1463.63 618.899 1458.08 618.899C1454.01 618.899 1450.48 617.75 1447.49 615.421C1444.5 613.091 1441.91 609.615 1439.74 604.705ZM1438.34 559.756C1432.29 561.512 1427.57 565.096 1424.18 570.509C1420.79 575.921 1419.1 582.732 1419.1 590.94C1419.1 595.708 1419.75 599.256 1421.04 601.658C1422.34 604.022 1424.29 605.241 1426.92 605.241C1430.09 605.241 1432.79 603.414 1434.99 599.722C1437.19 596.03 1438.3 591.405 1438.3 585.814V559.756H1438.34Z" fill="#AC2121"/>
<path d="M1480.17 616.353V609.937C1483.96 609.112 1486.48 608.001 1487.67 606.64C1488.85 605.278 1489.47 602.552 1489.47 598.503V532.048C1489.47 528.14 1488.78 525.416 1487.41 523.911C1486.04 522.404 1483.41 521.365 1479.56 520.827V514.197L1481.47 514.09C1494.62 513.517 1504.78 513.014 1511.99 512.513L1512.2 534.448C1514.65 527.245 1517.82 521.761 1521.64 517.961C1525.46 514.162 1529.75 512.296 1534.47 512.296C1538.54 512.296 1541.89 513.587 1544.45 516.133C1547.01 518.677 1548.31 522.01 1548.31 526.061C1548.31 529.896 1547.05 533.05 1544.56 535.524C1542.07 537.961 1538.83 539.216 1534.9 539.216C1531.88 539.216 1529.36 538.357 1527.3 536.6C1525.25 534.844 1523.66 532.263 1522.54 528.822C1519.23 533.374 1516.71 539.575 1515.01 547.424C1513.28 555.274 1512.42 564.522 1512.42 575.133V597.285C1512.42 601.837 1513.18 604.847 1514.69 606.352C1516.2 607.859 1519.19 608.611 1523.7 608.611H1524.96V616.39H1480.17V616.353Z" fill="#AC2121"/>
<path d="M1603.65 479.535C1603.65 475.771 1602.93 473.083 1601.53 471.543C1600.12 470.001 1597.45 468.962 1593.49 468.388V462.008C1599.47 461.721 1605.27 461.433 1610.86 461.111C1616.44 460.789 1621.88 460.431 1627.18 460V599.148C1627.18 603.197 1627.72 605.886 1628.77 607.141C1629.81 608.395 1631.9 609.184 1635 609.436V616.352C1634.5 616.352 1633.77 616.389 1632.77 616.461C1620.8 617.035 1611.36 617.608 1604.48 618.253L1604.05 607.106C1600.66 611.013 1597.28 613.988 1593.82 615.996C1590.36 618.002 1587.01 618.97 1583.69 618.97C1574.03 618.97 1566.43 614.274 1560.88 604.884C1555.33 595.491 1552.56 582.48 1552.56 565.813C1552.56 549.646 1555.55 536.563 1561.53 526.599C1567.51 516.634 1575.15 511.651 1584.45 511.651C1588.12 511.651 1591.51 512.548 1594.68 514.376C1597.85 516.205 1600.84 519 1603.65 522.763V479.535ZM1603.65 544.951C1603.65 538.284 1602.5 533.087 1600.16 529.288C1597.82 525.488 1594.68 523.624 1590.65 523.624C1585.92 523.624 1582.65 526.313 1580.84 531.724C1579.01 537.101 1578.11 548.106 1578.11 564.701C1578.11 581.978 1579.08 593.413 1581.03 599.004C1582.97 604.595 1586.39 607.356 1591.33 607.356C1595.08 607.356 1598.07 605.564 1600.3 602.016C1602.54 598.466 1603.69 593.592 1603.69 587.426V544.951H1603.65Z" fill="#AC2121"/>
</svg>
